PathFileType	4	(X/Y/Z)	D:\TRACE\v60_Jaco2_6-2-23\JustBodyDRS_Motion3_6-v60.trc
DataRate	CameraRate	NumFrames	NumMarkers	Units	OrigDataRate	OrigDataStartFrame	OrigNumFrames
100.00	100.00	      17	9	mm	100.00	876	      7000
Frame#	Time	front left toe			Front right toe			aft left toe			aft right toe			Arm			FL body			FR body			AL Body			AR Body			
		X1	Y1	Z1	X2	Y2	Z2	X3	Y3	Z3	X4	Y4	Z4	X5	Y5	Z5	X6	Y6	Z6	X7	Y7	Z7	X8	Y8	Z8	X9	Y9	Z9	

876	8.750	-260.67984	2.18454	-204.82973	116.94804	122.99933	-223.97931	-268.10483	160.93750	390.60568	105.81791	34.39244	422.26593	-28.86726	1157.07764	-320.04388	-143.35704	511.50867	-390.79364	14.81897	507.65311	-387.61887	-151.96523	578.25549	551.44696	0.33481	565.54541	554.44897	
877	8.760	-260.56900	2.08299	-204.88860	119.74989	118.90400	-221.23677	-266.69635	158.04576	393.06174	105.84202	34.44510	422.26587	-27.86650	1156.89551	-320.92798	-142.91656	510.98038	-390.56732	15.02000	507.02844	-387.64249	-150.97385	578.89636	551.37823	1.63737	566.22668	554.44537	
878	8.770	-260.41324	1.92396	-204.82533	121.89790	113.58801	-218.30098	-264.60226	154.02264	395.69830	105.87451	34.47185	422.19412	-27.93146	1156.73083	-321.86783	-142.78754	510.70123	-390.46582	16.10691	506.29868	-387.69553	-149.91948	580.72858	552.13647	2.91264	566.95148	554.30670	
879	8.780	-260.18964	1.93010	-204.75725	123.90012	107.20462	-216.22607	-262.13321	149.24652	398.34097	106.04630	34.53041	422.14066	-26.69444	1156.44312	-322.57828	-142.17943	510.41440	-390.27505	16.38293	506.01523	-387.74219	-148.39508	581.36652	552.07813	3.81415	567.55493	554.28900	
880	8.790	-259.98383	1.95731	-204.66086	125.87788	100.12936	-213.66005	-259.03275	141.96733	401.80511	106.24523	34.50491	421.97372	-25.63602	1156.14514	-323.10120	-141.67441	510.30780	-390.07053	17.03954	505.63474	-387.79816	-146.89661	581.99988	552.34564	4.11131	568.45679	554.40820	
881	8.800	-259.44998	1.70434	-204.86095	128.25020	91.74088	-212.12048	-256.11676	133.69724	404.82767	106.58784	34.62449	421.91190	-24.28506	1155.88477	-323.73996	-141.01865	509.87674	-389.83600	17.54322	505.33826	-387.93149	-145.11151	582.83545	552.34894	7.09900	568.79718	554.14056	
882	8.810	-259.47830	2.01930	-204.75327	131.27017	82.57320	-210.20462	-253.02020	124.37422	407.87408	107.14203	34.79162	421.82651	-22.82113	1155.45813	-323.98669	-140.46849	509.62903	-389.57523	18.25802	504.75946	-387.97327	-143.93474	583.29419	552.47003	8.40708	569.16345	554.16223	
883	8.820	-259.37738	1.93308	-204.72838	136.14578	73.38834	-207.41388	-249.92921	113.83281	411.00775	107.49022	34.91227	421.85992	-21.44858	1155.12317	-324.51694	-140.23083	509.48300	-389.71146	18.81443	504.44327	-387.94492	-141.98198	583.67737	552.71228	8.81908	569.86847	554.27539	
884	8.830	-259.19040	1.73971	-204.48155	140.05121	63.61939	-204.37599	-246.95018	102.50900	413.93066	107.94813	34.90028	421.73355	-20.13445	1154.61633	-324.86621	-139.43845	509.10687	-389.39471	19.51463	504.13333	-387.80453	-140.67638	583.77887	552.81580	11.88997	569.74426	554.24750	
885	8.840	-259.02066	1.65948	-204.35252	141.63470	53.36967	-202.91017	-243.61745	91.20683	416.48233	108.30310	34.78416	421.64258	-19.30679	1154.22229	-325.22327	-138.66661	508.69122	-389.18494	19.47838	503.82547	-387.43793	-138.90598	584.02026	552.87231	13.10416	569.71136	554.22748	
886	8.850	-258.85477	1.84922	-204.46762	145.65016	44.56953	-201.00861	-240.18855	80.69282	418.04388	108.38080	34.44932	421.59387	-18.04463	1153.88367	-325.38354	-137.66718	508.44351	-388.96024	20.39698	503.38452	-387.38297	-136.88634	584.02277	553.16742	14.14454	570.02222	554.35907	
887	8.860	-258.64133	1.83028	-204.44865	147.84264	35.29848	-200.40852	-236.83859	70.26391	418.70203	108.47971	34.34430	421.49875	-17.34255	1153.90454	-325.40524	-136.80989	508.19131	-388.75098	21.86419	503.03375	-387.44861	-135.53627	583.94342	553.15729	16.99586	569.69775	554.27222	
888	8.870	-258.29987	1.76547	-204.46095	147.98589	26.10055	-201.34308	-233.80093	59.95168	418.79224	108.66386	34.28041	421.42984	-16.18315	1153.76917	-325.15643	-135.92368	508.12268	-388.69006	23.08088	503.00082	-387.56854	-133.46790	583.70734	553.26001	18.83318	569.46655	554.34344	
889	8.880	-257.98672	1.78868	-204.35960	150.14230	18.34723	-202.86728	-231.29189	51.25792	417.37503	108.93294	34.34473	421.49722	-15.36726	1153.78149	-324.90811	-134.78574	507.92392	-388.46341	24.06396	503.03601	-387.61880	-131.41974	583.38147	553.42230	20.53829	569.25116	554.19409	
890	8.890	-257.54990	1.79377	-204.27728	153.12439	11.80888	-204.79562	-227.75603	43.46012	414.77109	109.42518	34.30441	421.64478	-14.52062	1153.75769	-324.62189	-133.17720	507.70789	-388.13647	24.55327	503.07114	-387.41306	-129.83060	582.85431	553.41278	22.47588	568.97235	554.26770	
891	8.900	-257.17749	1.96528	-204.07445	152.89978	6.59092	-207.58636	-226.55138	38.33512	411.99133	110.12309	34.08115	421.74265	-13.99479	1153.79932	-324.40796	-132.39403	508.00757	-388.38501	25.76231	503.32220	-387.72876	-127.77698	582.31592	553.46802	24.18823	568.56525	554.06281	
892	8.910	-256.93295	2.06189	-204.28275	153.83176	5.23579	-208.42805	-226.70833	37.33155	412.42032	110.68249	33.94832	421.53113	-13.36634	1153.97485	-324.15854	-131.28830	508.20728	-388.63657	26.98395	503.65186	-387.98935	-125.62606	582.13086	553.37183	26.17570	568.37665	553.89905	
